<svg xmlns="http://www.w3.org/2000/svg" viewBox="0 0 100 100" width="500" height="500" class="illustration"><defs><style>.cls-1{fill:#0099f5;}.cls-2{fill:#00d44d;}.cls-3{fill:#0064f4;}.cls-4{fill:#ffd44d;}.cls-5{fill:none;stroke:#231f20;stroke-miterlimit:10;stroke-width:1.5px;}</style></defs><g id="Layer_1" data-name="Layer 1"><rect class="cls-1" x="30.06" y="54.37" width="37.44" height="29.16"></rect><rect class="cls-2" x="28.49" y="72.23" width="15.04" height="3.3" transform="translate(-45.98 68.12) rotate(-60)"></rect><polygon class="cls-3" points="59.63 47.13 36.01 47.13 36.01 56.24 58.62 56.24 59.63 47.13"></polygon><path class="cls-1" d="M79.47,64v6.84A12.71,12.71,0,0,1,66.76,83.54V64.63A18,18,0,0,0,65.87,59a1.12,1.12,0,0,0-2-.32,18,18,0,0,1-30.32,0,1.12,1.12,0,0,0-2,.32,17.75,17.75,0,0,0-.9,5.63V83.54A12.7,12.7,0,0,1,18,70.83V64A16.84,16.84,0,0,1,34.8,47.13H36a13.8,13.8,0,0,0,22.54,1.54,12.62,12.62,0,0,0,1.09-1.54h3a16.47,16.47,0,0,1,3,.25A16.89,16.89,0,0,1,79.47,64Z"></path><circle class="cls-1" cx="47.82" cy="30.64" r="14.18"></circle><path class="cls-1" d="M24.63,73h5.72a5.14,5.14,0,0,1,5.14,5.14v5.43H30.65L27.8,78.8"></path><path class="cls-1" d="M72.52,73H66.8a5.14,5.14,0,0,0-5.15,5.14v5.43h4.84l2.85-4.74"></path><path class="cls-4" d="M82.05,83.54H39.58c0-3.05,5.07-5.5,11.32-5.5,4.27,0,8,1.15,9.91,2.83C62.75,79.19,66.45,78,70.72,78,77,78,82.05,80.49,82.05,83.54Z"></path></g><g id="Layer_2" data-name="Layer 2"><line class="cls-5" x1="30.06" y1="70.1" x2="30.06" y2="54.37"></line><line class="cls-5" x1="67.5" y1="83.54" x2="30.06" y2="83.54"></line><line class="cls-5" x1="67.5" y1="54.37" x2="67.5" y2="73.08"></line><polyline class="cls-5" points="35.01 72.3 38.34 66.54 41.2 68.19 35.74 77.64"></polyline><line class="cls-5" x1="59.63" y1="47.13" x2="36" y2="47.13"></line><path class="cls-5" d="M64.19,47.2c.46,0,.92.1,1.37.18A16.89,16.89,0,0,1,79.47,64v6.84a12.7,12.7,0,0,1-.91,4.74"></path><path class="cls-5" d="M30.65,83.54A12.7,12.7,0,0,1,18,70.83V64A16.84,16.84,0,0,1,34.8,47.13H36a13.82,13.82,0,0,0,18.93,4.69"></path><circle class="cls-5" cx="47.82" cy="30.64" r="14.18"></circle><path class="cls-5" d="M24.63,73h5.72a5.14,5.14,0,0,1,5.14,5.14v5.43H30.65"></path><path class="cls-5" d="M72.52,73H66.8a5.14,5.14,0,0,0-5,4.11"></path><path class="cls-5" d="M82.05,83.54H39.58c0-3.05,5.07-5.5,11.32-5.5,4.27,0,8,1.15,9.91,2.83C62.75,79.19,66.45,78,70.72,78,77,78,82.05,80.49,82.05,83.54Z"></path></g></svg>